<mxfile host="app.diagrams.net" modified="2023-06-27T04:41:52.185Z" agent="Mozilla/5.0 (Macintosh; Intel Mac OS X 10_15_7) AppleWebKit/537.36 (KHTML, like Gecko) Chrome/114.0.0.0 Safari/537.36" version="21.5.0" etag="BZ8n08Xw2QnaEkBCbF9e" type="github">
  <diagram name="第 1 页" id="By2J_ZTg2xk1is92UNs1">
    <mxGraphModel>
      <root>
        <mxCell id="0" />
        <mxCell id="1" parent="0" />
      </root>
    </mxGraphModel>
  </diagram>
</mxfile>
